<svg id="Réteg_1" data-name="Réteg 1" xmlns="http://www.w3.org/2000/svg" viewBox="0 0 73.9 66"><defs><style>.cls-1{fill:#5a75bf;fill-rule:evenodd;}</style></defs><path class="cls-1" d="M19.4,20.1H9L11.8,0,73.9,8.6,72.2,20.5l-24.8-.2-7.7-7.6c-2-2-3.7-2-5.7,0l-.5.5h0l-.5.5-.5.5c-.6.7-1.2,1.3-1.8,1.9h0c-.5.5-1,1.1-1.6,1.6a6,6,0,0,1-.8.8h0c-.2.2-.4.3-.5.5-.3.3-.5.4-.5-.2-.1-1.4-.7-2-2-2H21.4c-1.2,0-1.8.8-1.8,2.1A2.54,2.54,0,0,0,19.4,20.1Zm0,2.3H5.4L0,42.7H18.7c0-1.4,0-2.9.1-4.4,0-.1.1-.3.1-.4a1.71,1.71,0,0,1,1.6-1.1,10.87,10.87,0,0,1,1.8.1,2,2,0,0,1,1.2,2v3.8h1.4a1.05,1.05,0,0,1,.9-.5H48.1a1.1,1.1,0,0,1,1,.5h1.4V41.1h0V38.6a1.61,1.61,0,0,1,.3-.9,1.76,1.76,0,0,1,.9-.8,4.87,4.87,0,0,1,1.2-.1h.4A1.83,1.83,0,0,1,55.1,38v4.7h7.6l5.5-20.2H49.5L59.6,32.6a4.59,4.59,0,0,1,1,3.4,4.19,4.19,0,0,1-.8,2.2c-.1.1-.1.2-.2.3h0c-.6.5-1.1,1.1-2,1.1H56.3v-2a.9.9,0,0,0-.1-.5,2.47,2.47,0,0,0-2.5-1.5H53V34h0c0-1.7,0-3.4-.1-5.1a3.83,3.83,0,0,0-3.8-3.6H24.8A3.83,3.83,0,0,0,21,28.9c-.1,1.6-.1,3.1-.1,4.6v2h-1A2.87,2.87,0,0,0,17.5,37l-.1.4v2H16.1a3.4,3.4,0,0,1-2.8-2.7,4.35,4.35,0,0,1,1.1-4.4c1.4-1.5,2.9-2.9,4.4-4.4a1.89,1.89,0,0,0,.6-1.5Zm31,22.7H49a1.1,1.1,0,0,1-1,.5H25.9c-.6,0-1-.2-1.1-.7H23.5v.5a1.28,1.28,0,0,0,.4,1,1.22,1.22,0,0,0,.9.4H49.1a1.26,1.26,0,0,0,1.3-1.3Zm-31.7-.2v.7h0v3.9A2.44,2.44,0,0,0,20,51.2a2.35,2.35,0,0,0,.8.2c.2,0,.2.1.2.3v.6h0v1.6h0v1.4c0,.4.2.6.5.6s.6-.1.7-.5a.9.9,0,0,0,.1-.5v-.1a2.09,2.09,0,0,1,.6-1.2,2.09,2.09,0,0,0,.6-1.2h0a1.45,1.45,0,0,0,.2-.7h0v-.1c0-.3.2-.4.5-.4H49.3c.3-.1.4.1.5.4v.1h0a1.85,1.85,0,0,0,.2.7h0v.2c0,.1.1.3.1.4a2.09,2.09,0,0,0,.6,1.2,2.09,2.09,0,0,1,.6,1.2c.1.4.3.6.7.5a.58.58,0,0,0,.6-.6V53.8h0V52.5h0v-.2h0v-.6c0-.2,0-.3.2-.3a1.88,1.88,0,0,0,.8-.2,2.1,2.1,0,0,0,1.3-1.7V45.1l13.2.1L65.3,65.3,3.5,56.7,5.2,44.8Zm32.9-9.1V34.4h0V29.5a2.82,2.82,0,0,0-2.8-2.6H25.2a2.83,2.83,0,0,0-2.8,2.6c-.1,1.5-.1,3-.1,4.4v1.8h0a2.35,2.35,0,0,1,1.4.7,2.84,2.84,0,0,1,.9,2.6,1.79,1.79,0,0,0,1.8,1.8H47.5a1.82,1.82,0,0,0,1.7-1.5v-.2h0a2.77,2.77,0,0,1,.1-.9,3.63,3.63,0,0,1,.7-1.7A3.9,3.9,0,0,1,51.6,35.8Zm-21.1-.7a.6.6,0,0,1,0-1.2h.2c.1,0,.1.1.2.1s.1.1.1.2v.2c0,.5-.2.7-.5.7Zm6.4,0a.76.76,0,0,1-.4-.2.52.52,0,0,1-.2-.4v-.2c0-.1.1-.1.1-.2s.1-.1.2-.1H37c.1,0,.1.1.2.1s.1.1.1.2v.2c.2.3-.1.6-.4.6Zm6.5,0a.58.58,0,0,1-.6-.6.52.52,0,0,1,.2-.4.76.76,0,0,1,.4-.2.65.65,0,0,1,.6.6c-.1.3-.3.6-.6.6Z"/></svg>