<svg width="1370" height="509" viewBox="0 0 1370 509" fill="none" xmlns="http://www.w3.org/2000/svg">
<path fill-rule="evenodd" clip-rule="evenodd" d="M0 15C0 6.71573 6.71573 0 15 0H124C132.284 0 139 6.71573 139 15V121C139 129.284 132.284 136 124 136H15C6.71573 136 0 129.284 0 121V15ZM288 214C288 205.716 294.716 199 303 199H364C372.284 199 379 205.716 379 214V275C379 283.284 372.284 290 364 290H303C294.716 290 288 283.284 288 275V214ZM407 199C398.716 199 392 205.716 392 214V275C392 283.284 398.716 290 407 290H481C489.284 290 496 283.284 496 275V214C496 205.716 489.284 199 481 199H407ZM506 214C506 205.716 512.716 199 521 199H695C703.284 199 710 205.716 710 214V388C710 396.284 703.284 403 695 403H521C512.716 403 506 396.284 506 388V214ZM720 367C720 358.716 726.716 352 735 352H843C851.284 352 858 358.716 858 367V475C858 483.284 851.284 490 843 490H735C726.716 490 720 483.284 720 475V367ZM303 301C294.716 301 288 307.716 288 316V494C288 502.284 294.716 509 303 509H481C489.284 509 496 502.284 496 494V316C496 307.716 489.284 301 481 301H303ZM521 0C512.716 0 506 6.71573 506 15V52C506 60.2843 512.716 67 521 67H695C703.284 67 710 60.2843 710 52V15C710 6.71573 703.284 0 695 0H521ZM341 15C341 6.71573 347.716 0 356 0H480C488.284 0 495 6.71573 495 15V52C495 60.2843 488.284 67 480 67H356C347.716 67 341 60.2843 341 52V15ZM521 412C512.716 412 506 418.716 506 427V494C506 502.284 512.716 509 521 509H588C596.284 509 603 502.284 603 494V427C603 418.716 596.284 412 588 412H521ZM613 427C613 418.716 619.716 412 628 412H694C702.284 412 709 418.716 709 427V494C709 502.284 702.284 509 694 509H628C619.716 509 613 502.284 613 494V427ZM735 137C726.716 137 720 143.716 720 152V330C720 338.284 726.716 345 735 345H913C921.284 345 928 338.284 928 330V152C928 143.716 921.284 137 913 137H735ZM868 367C868 358.716 874.716 352 883 352H991C999.284 352 1006 358.716 1006 367V494C1006 502.284 999.284 509 991 509H883C874.716 509 868 502.284 868 494V367ZM1031 352C1022.72 352 1016 358.716 1016 367V447C1016 455.284 1022.72 462 1031 462H1111C1119.28 462 1126 455.284 1126 447V367C1126 358.716 1119.28 352 1111 352H1031ZM1016 487C1016 478.716 1022.72 472 1031 472H1231C1239.28 472 1246 478.716 1246 487V494C1246 502.284 1239.28 509 1231 509H1031C1022.72 509 1016 502.284 1016 494V487ZM1151 352C1142.72 352 1136 358.716 1136 367V447C1136 455.284 1142.72 462 1151 462H1231C1239.28 462 1246 455.284 1246 447V367C1246 358.716 1239.28 352 1231 352H1151ZM848 15C848 6.71573 854.716 0 863 0H913C921.284 0 928 6.71573 928 15V114C928 122.284 921.284 129 913 129H863C854.716 129 848 122.284 848 114V15ZM952 178C943.716 178 937 184.716 937 193V326C937 334.284 943.716 341 952 341H1085C1093.28 341 1100 334.284 1100 326V193C1100 184.716 1093.28 178 1085 178H952ZM937 19C937 10.7157 943.716 4 952 4H1085C1093.28 4 1100 10.7157 1100 19V152C1100 160.284 1093.28 167 1085 167H952C943.716 167 937 160.284 937 152V19ZM484 74C475.716 74 469 80.7157 469 89V177C469 185.284 475.716 192 484 192H572C580.284 192 587 185.284 587 177V89C587 80.7157 580.284 74 572 74H484ZM1109 249C1109 240.716 1115.72 234 1124 234H1201C1209.28 234 1216 240.716 1216 249V326C1216 334.284 1209.28 341 1201 341H1124C1115.72 341 1109 334.284 1109 326V249ZM1241 234C1232.72 234 1226 240.716 1226 249V326C1226 334.284 1232.72 341 1241 341H1355C1363.28 341 1370 334.284 1370 326V249C1370 240.716 1363.28 234 1355 234H1241ZM1256 366C1256 357.716 1262.72 351 1271 351H1355C1363.28 351 1370 357.716 1370 366V494C1370 502.284 1363.28 509 1355 509H1271C1262.72 509 1256 502.284 1256 494V366ZM1124 26C1115.72 26 1109 32.7157 1109 41V209C1109 217.284 1115.72 224 1124 224H1355C1363.28 224 1370 217.284 1370 209V41C1370 32.7157 1363.28 26 1355 26H1124ZM150 216C150 207.716 156.716 201 165 201H263C271.284 201 278 207.716 278 216V314C278 322.284 271.284 329 263 329H165C156.716 329 150 322.284 150 314V216ZM165 341C156.716 341 150 347.716 150 356V494C150 502.284 156.716 509 165 509H263C271.284 509 278 502.284 278 494V356C278 347.716 271.284 341 263 341H165ZM0 403C0 394.716 6.71573 388 15 388H125C133.284 388 140 394.716 140 403V494C140 502.284 133.284 509 125 509H15C6.71573 509 0 502.284 0 494V403ZM356 74C347.716 74 341 80.7157 341 89V177C341 185.284 347.716 192 356 192H444C452.284 192 459 185.284 459 177V89C459 80.7157 452.284 74 444 74H356ZM150 15C150 6.71573 156.716 0 165 0H316C324.284 0 331 6.71573 331 15V173C331 181.284 324.284 188 316 188H165C156.716 188 150 181.284 150 173V15ZM15 149C6.71573 149 0 155.716 0 164V361C0 369.284 6.71573 376 15 376H125C133.284 376 140 369.284 140 361V164C140 155.716 133.284 149 125 149H15ZM596 89C596 80.7157 602.716 74 611 74H699C707.284 74 714 80.7157 714 89V177C714 185.284 707.284 192 699 192H611C602.716 192 596 185.284 596 177V89ZM736 11C727.716 11 721 17.7157 721 26V114C721 122.284 727.716 129 736 129H824C832.284 129 839 122.284 839 114V26C839 17.7157 832.284 11 824 11H736Z" fill="url(#paint0_linear_575_1233)" fill-opacity="0.14"/>
<defs>
<linearGradient id="paint0_linear_575_1233" x1="685" y1="3.26752e-07" x2="686.3" y2="507.767" gradientUnits="userSpaceOnUse">
<stop offset="0.0340579" stop-color="white"/>
<stop offset="0.227499" stop-color="#5A75BF"/>
<stop offset="0.815" stop-color="#5A75BF"/>
<stop offset="0.992651" stop-color="white"/>
</linearGradient>
</defs>
</svg>
