<?xml version="1.0" encoding="utf-8"?>
<!-- Generator: Adobe Illustrator 24.2.3, SVG Export Plug-In . SVG Version: 6.00 Build 0)  -->
<svg version="1.1" id="Réteg_1" xmlns="http://www.w3.org/2000/svg" xmlns:xlink="http://www.w3.org/1999/xlink" x="0px" y="0px"
	 viewBox="0 0 288 66" style="enable-background:new 0 0 288 66;" xml:space="preserve">
<style type="text/css">
	.st0{fill:#FFFFFF;}
	.st1{fill-rule:evenodd;clip-rule:evenodd;fill:#FFFFFF;}
</style>
<path class="st0" d="M99.6,49.7V39H90v10.7h-5.2V23.8H90v10.6h9.6V23.8h5.2v25.8H99.6z M112.7,32.8c1.3-1.7,3.6-2.6,6.7-2.6
	c3.1,0,5.4,0.9,6.7,2.6c1.3,1.7,2,4.2,2,7.3c0,6.7-2.9,10-8.7,10c-5.8,0-8.7-3.3-8.7-10C110.7,37,111.3,34.6,112.7,32.8z
	 M116.6,44.4c0.5,0.9,1.5,1.4,2.8,1.4c1.3,0,2.3-0.5,2.8-1.4c0.5-0.9,0.8-2.3,0.8-4.3c0-2-0.3-3.4-0.8-4.3c-0.5-0.9-1.4-1.3-2.8-1.3
	c-1.3,0-2.3,0.4-2.8,1.3c-0.5,0.9-0.8,2.3-0.8,4.3C115.8,42.1,116.1,43.5,116.6,44.4z M138.9,49.7h-5.1v-19h5.1v1.1
	c1.7-1,3.2-1.5,4.5-1.5c2.1,0,3.6,0.6,4.8,1.8c2.3-1.2,4.5-1.8,6.4-1.8c2.5,0,4.2,0.7,5.2,2.2c1,1.4,1.5,3.8,1.5,7v10.3h-5.1V39.5
	c0-1.6-0.2-2.8-0.5-3.6c-0.4-0.8-1.1-1.2-2.1-1.2c-0.8,0-1.8,0.2-3,0.5l-0.6,0.2c0.1,1.9,0.2,3.3,0.2,4.3v9.8h-5.1v-9.8
	c0-1.9-0.2-3.2-0.5-4c-0.3-0.8-1.1-1.2-2.2-1.2c-1,0-2,0.2-2.9,0.5l-0.5,0.2V49.7z M171.7,42.3c0,1.2,0.3,2,0.9,2.5
	c0.6,0.5,1.5,0.8,2.6,0.8c2.4,0,4.5-0.1,6.3-0.2l1.1-0.1l0.1,3.8c-2.9,0.7-5.5,1.1-7.9,1.1c-2.9,0-4.9-0.8-6.2-2.3
	c-1.3-1.5-1.9-4-1.9-7.4c0-6.8,2.8-10.2,8.4-10.2c5.5,0,8.3,2.9,8.3,8.6l-0.4,3.5H171.7z M178.3,38.5c0-1.5-0.2-2.6-0.7-3.2
	c-0.5-0.6-1.3-0.9-2.5-0.9c-1.2,0-2,0.3-2.5,1c-0.5,0.6-0.7,1.6-0.8,3.1H178.3z M190,23.1h9.1c5.1,0,7.7,2.2,7.7,6.6
	c0,3.3-1.2,5.4-3.7,6.3c3.1,0.9,4.7,3,4.7,6.4c0,2.7-0.7,4.6-2.1,5.7c-1.3,1.1-3.3,1.6-5.9,1.6H190V23.1z M199.5,36.7h-8.2v11.7h8.5
	c2.1,0,3.7-0.4,4.9-1.3c1.1-0.9,1.7-2.5,1.7-4.7C206.4,38.6,204.1,36.7,199.5,36.7z M199.1,24.4h-7.8v11.1h8.2
	c2.1,0,3.5-0.5,4.4-1.4c0.9-0.9,1.4-2.4,1.4-4.3c0-1.9-0.5-3.3-1.5-4.1C202.8,24.8,201.2,24.4,199.1,24.4z M216,32.5
	c1.2-1.4,3.2-2.1,6-2.1s4.8,0.7,6,2.1c1.2,1.4,1.7,4,1.7,7.7c0,3.7-0.5,6.3-1.6,7.7c-1,1.4-3.1,2.2-6.2,2.2c-3.1,0-5.1-0.7-6.2-2.2
	c-1-1.4-1.6-4-1.6-7.7C214.2,36.4,214.8,33.9,216,32.5z M218.6,48.4c0.8,0.3,2,0.4,3.4,0.4c1.4,0,2.5-0.1,3.3-0.4
	c0.8-0.3,1.5-0.8,1.9-1.6c0.5-0.8,0.7-1.7,0.9-2.7c0.1-1,0.2-2.4,0.2-4.2c0-3.2-0.4-5.4-1.3-6.5c-0.9-1.2-2.5-1.7-5-1.7
	c-2.4,0-4.1,0.6-5,1.7c-0.9,1.2-1.3,3.3-1.3,6.5c0,1.8,0.1,3.2,0.2,4.2c0.1,1,0.4,1.9,0.8,2.7C217.1,47.5,217.7,48.1,218.6,48.4z
	 M249.5,36.3v10.9c0.1,0.9,1.1,1.4,2.9,1.6l-0.1,1.2c-1.8,0-3.2-0.5-3.9-1.6c-2.6,1.1-5.1,1.6-7.7,1.6c-1.6,0-2.8-0.5-3.7-1.4
	c-0.9-0.9-1.3-2.3-1.3-4c0-1.7,0.4-3.1,1.3-4c0.8-0.9,2.2-1.5,4-1.6l7.2-0.8v-2c0-1.6-0.4-2.8-1.1-3.5c-0.7-0.7-1.7-1.1-3.2-1.1
	c-1.4,0-3.4,0.2-6,0.5l-1.2,0.2l-0.1-1.3c2.8-0.5,5.3-0.7,7.3-0.7C247.6,30.3,249.5,32.3,249.5,36.3z M241.1,40.2
	c-1.4,0.2-2.5,0.6-3.1,1.3c-0.6,0.7-0.9,1.7-0.9,3.1s0.3,2.4,0.9,3.2c0.6,0.7,1.5,1.1,2.6,1.1c1.1,0,2.3-0.1,3.5-0.4
	c1.2-0.3,2.2-0.5,2.9-0.8l1.1-0.4v-7.8L241.1,40.2z M257.6,49.7v-19h1.3v3c0.8-0.6,1.9-1.3,3.4-1.9c1.5-0.7,2.9-1.2,4.1-1.4v1.4
	c-1.1,0.2-2.3,0.6-3.6,1.1c-1.2,0.5-2.2,1-2.9,1.4l-1.1,0.6v14.8H257.6z M284.7,21.9v27.7h-1.3v-1.6c-0.7,0.5-1.8,0.9-3.1,1.3
	c-1.3,0.4-2.4,0.6-3.2,0.6c-0.8,0-1.4,0-1.9-0.1c-0.4-0.1-1-0.2-1.6-0.6c-0.7-0.4-1.2-0.8-1.6-1.5c-0.4-0.6-0.8-1.6-1.1-2.9
	c-0.3-1.3-0.5-2.8-0.5-4.5c0-3.4,0.6-6,1.7-7.6c1.2-1.7,3.3-2.5,6.3-2.5c1.4,0,3.1,0.2,5,0.5v-8.9H284.7z M273.5,47.5
	c0.6,0.5,1.1,0.8,1.6,1c0.5,0.2,1.2,0.2,2,0.2s1.8-0.2,2.9-0.5c1.1-0.3,2-0.7,2.6-1l0.9-0.5V32c-2-0.3-3.6-0.5-5-0.5
	c-2.6,0-4.3,0.7-5.2,2.2c-0.9,1.4-1.4,3.7-1.4,6.8C271.7,44.1,272.3,46.5,273.5,47.5z"/>
<path class="st1" d="M19.4,20.1L9,20.1L11.8,0l62.1,8.6l-1.7,11.9l-24.8-0.2l-7.7-7.6c-2-2-3.7-2-5.7,0c-0.3,0.3-0.4,0.4-0.5,0.5
	l0,0l0,0c-0.1,0.1-0.2,0.2-0.5,0.5l-0.5,0.5c-0.6,0.7-1.2,1.3-1.8,1.9h0l0,0c-0.5,0.5-1,1.1-1.6,1.6c-0.3,0.3-0.5,0.6-0.8,0.8l0,0h0
	l0,0c-0.2,0.2-0.4,0.3-0.5,0.5c-0.3,0.3-0.5,0.4-0.5-0.2c-0.1-1.4-0.7-2-2-2c-1.3,0-2.6,0-3.9,0c-1.2,0-1.8,0.8-1.8,2.1
	C19.4,19.3,19.4,19.7,19.4,20.1z M19.4,22.4h-14L0,42.7h18.7c0-1.4,0-2.9,0.1-4.4c0-0.1,0.1-0.3,0.1-0.4c0.3-0.7,0.9-1.1,1.6-1.1
	c0.6,0,1.2,0,1.8,0.1c0.8,0.4,1.2,1,1.2,2c0,1.1,0,2.3,0,3.4c0,0.1,0,0.3,0,0.4h1.4c0.2-0.3,0.5-0.5,0.9-0.5c7.4,0,14.9,0,22.3,0
	c0.5,0,0.8,0.2,1,0.5h1.4c0-0.5,0-1.1,0-1.6v0l0,0l0,0v0v0c0-0.8,0-1.7,0-2.5c0-0.3,0.1-0.6,0.3-0.9c0.2-0.4,0.5-0.6,0.9-0.8
	c0.4-0.1,0.8-0.1,1.2-0.1c0.1,0,0.3,0,0.4,0c0.8,0,1.5,0.4,1.8,1.2c0,0.1,0,0.2,0,0.3l0,4.4h7.6l5.5-20.2H49.5l10.1,10.1
	c0.7,1,1.2,2.1,1,3.4c-0.1,0.8-0.3,1.6-0.8,2.2c-0.1,0.1-0.1,0.2-0.2,0.3l0,0c-0.6,0.5-1.1,1.1-2,1.1h-1.3l0-2c0-0.2,0-0.3-0.1-0.5
	c-0.3-1-1.4-1.5-2.5-1.5h0c-0.2,0-0.4,0-0.6,0H53v-0.2c0-0.5,0-0.9,0-1.4l0,0c0-1.7,0-3.4-0.1-5.1c-0.1-2-1.8-3.6-3.8-3.6H36.9H24.8
	c-2,0-3.7,1.6-3.8,3.6c-0.1,1.6-0.1,3.1-0.1,4.6c0,0.6,0,1.2,0,1.8c0,0.1,0,0.1,0,0.2c-0.1,0-0.2,0-0.3,0h0c-0.2,0-0.4,0-0.7,0
	c-1.1,0.1-1.9,0.6-2.4,1.5l-0.1,0.4l0,2h-0.9c-0.1,0-0.2,0-0.4,0c-1.5-0.3-2.4-1.2-2.8-2.7c-0.5-1.8,0-3.2,1.1-4.4
	c1.4-1.5,2.9-2.9,4.4-4.4c0.4-0.4,0.6-0.8,0.6-1.5C19.4,25.2,19.4,23.8,19.4,22.4z M50.4,45.1l-1.4,0c-0.2,0.3-0.5,0.5-1,0.5H36.9
	H25.9c-0.6,0-1-0.2-1.1-0.7l-1.3,0c0,0.2,0,0.3,0,0.5c0,0.4,0.1,0.7,0.4,1c0.3,0.3,0.6,0.4,0.9,0.4c8.1,0,16.2,0,24.3,0
	c0.7,0,1.4-0.6,1.3-1.3C50.4,45.4,50.4,45.2,50.4,45.1z M18.7,44.9c0,0.2,0,0.5,0,0.7v0c0,1.1,0,2.3,0,3.4c0,0.2,0,0.4,0,0.5
	c0.1,0.7,0.6,1.3,1.3,1.7c0.3,0.1,0.5,0.2,0.8,0.2c0.2,0,0.2,0.1,0.2,0.3c0,0.2,0,0.4,0,0.6v0c0,0.1,0,0.2,0,0.2c0,0.8,0,1.1,0,1.4
	l0,0v0c0,0.3,0,0.5,0,1.4c0,0.4,0.2,0.6,0.5,0.6c0.4,0.1,0.6-0.1,0.7-0.5c0.1-0.2,0.1-0.3,0.1-0.5c0,0,0-0.1,0-0.1
	c0.2-0.8,0.4-1,0.6-1.2c0.2-0.2,0.4-0.4,0.6-1.2h0c0.1-0.2,0.2-0.4,0.2-0.7l0,0l0-0.1c0-0.3,0.2-0.4,0.5-0.4c0,0,0,0,0.1,0h24.9
	c0,0,0,0,0.1,0c0.3-0.1,0.4,0.1,0.5,0.4c0,0,0,0.1,0,0.1l0,0c0,0.2,0.1,0.5,0.2,0.7h0c0,0.1,0,0.1,0,0.2c0,0.1,0.1,0.3,0.1,0.4
	c0.2,0.8,0.4,1,0.6,1.2c0.2,0.2,0.4,0.4,0.6,1.2c0.1,0.4,0.3,0.6,0.7,0.5c0.4,0,0.6-0.3,0.6-0.6c0-1,0-1.2,0-1.5l0,0
	c0-0.2,0-0.6,0-1.3h0l0-0.1l0-0.1l0,0l0,0v0l0,0c0-0.2,0-0.4,0-0.6c0-0.2,0-0.3,0.2-0.3c0.3,0,0.6-0.1,0.8-0.2
	c0.7-0.3,1.2-0.9,1.3-1.7c0-0.1,0-0.3,0-0.4l0-4l13.2,0.1l-2.8,20.1L3.5,56.7l1.7-11.9L18.7,44.9z M51.6,35.8c0-0.5,0-0.9,0-1.4l0,0
	l0,0v0l0,0l0,0c0-1.6,0-3.2,0-4.9c-0.1-1.5-1.4-2.6-2.8-2.6H25.2c-1.5,0-2.7,1.2-2.8,2.6c-0.1,1.5-0.1,3-0.1,4.4c0,0.6,0,1.2,0,1.8
	l0,0l0,0c0,0,0,0,0,0c0.6,0.1,1,0.3,1.4,0.7c0.8,0.7,1,1.6,0.9,2.6c-0.1,0.9,0.8,1.8,1.8,1.8c4.3,0,8.6,0,12.9,0c1.5,0,2.9,0,4.4,0
	c0.4,0,0.8,0,1.3,0h0c0.8,0,1.7,0,2.5,0c0.9,0,1.6-0.8,1.7-1.5l0-0.2l0,0v0v0v0v0c0-0.3,0-0.6,0.1-0.9c0.1-0.6,0.3-1.2,0.7-1.7
	C50.4,36.2,51,35.9,51.6,35.8z M30.5,35.1c-0.3,0-0.6-0.3-0.6-0.6c0-0.3,0.3-0.6,0.6-0.6c0.1,0,0.2,0,0.2,0c0.1,0,0.1,0.1,0.2,0.1
	c0.1,0.1,0.1,0.1,0.1,0.2c0,0.1,0,0.1,0,0.2C31,34.9,30.8,35.1,30.5,35.1L30.5,35.1z M36.9,35.1c-0.1,0-0.3-0.1-0.4-0.2
	c-0.1-0.1-0.2-0.2-0.2-0.4c0-0.1,0-0.2,0-0.2c0-0.1,0.1-0.1,0.1-0.2c0.1-0.1,0.1-0.1,0.2-0.1c0.1,0,0.1,0,0.2,0c0.1,0,0.2,0,0.2,0
	c0.1,0,0.1,0.1,0.2,0.1c0.1,0.1,0.1,0.1,0.1,0.2s0,0.1,0,0.2C37.5,34.8,37.2,35.1,36.9,35.1L36.9,35.1z M43.4,35.1
	c-0.3,0-0.6-0.2-0.6-0.6c0-0.2,0.1-0.3,0.2-0.4c0.1-0.1,0.3-0.2,0.4-0.2c0.3,0,0.6,0.3,0.6,0.6C43.9,34.8,43.7,35.1,43.4,35.1
	L43.4,35.1z"/>
</svg>
