<svg width="1280" height="917" viewBox="0 0 1280 917" fill="none" xmlns="http://www.w3.org/2000/svg">
<path fill-rule="evenodd" clip-rule="evenodd" d="M1280 1H1181C1172.72 1 1166 7.71484 1166 16V85C1166 93.2852 1172.72 100 1181 100H1280V1ZM1280 110.057H1181.29C1173.01 110.057 1166.29 116.771 1166.29 125.057V253.762C1166.29 262.047 1173.01 268.762 1181.29 268.762H1280V110.057ZM1280 279H1044C1035.72 279 1029 285.715 1029 294V517C1029 525.285 1035.72 532 1044 532H1280V279ZM1280 543H1271C1262.72 543 1256 549.715 1256 558V785C1256 793.285 1262.72 800 1271 800H1280V543ZM1280 812H1004C995.716 812 989 818.715 989 827V901C989 909.285 995.716 916 1004 916H1280V812ZM212 916H0V847H212C220.284 847 227 853.715 227 862V901C227 909.285 220.284 916 212 916ZM214 835H0V600H214C222.284 600 229 606.715 229 615V820C229 828.285 222.284 835 214 835ZM160 586H0V498H160C168.284 498 175 504.715 175 513V571C175 579.285 168.284 586 160 586ZM50 487H0V289H50C58.2842 289 65 295.715 65 304V472C65 480.285 58.2842 487 50 487ZM100 279H0V1H100C108.284 1 115 7.71484 115 16V264C115 272.285 108.284 279 100 279ZM363.615 0.802734C355.331 0.802734 348.615 7.51758 348.615 15.8027V169.809C348.615 178.094 355.331 184.809 363.615 184.809H517.622C525.906 184.809 532.622 178.094 532.622 169.809V15.8027C532.622 7.51758 525.906 0.802734 517.622 0.802734H363.615ZM689.027 388.416C689.027 380.131 695.743 373.416 704.027 373.416H832.732C841.018 373.416 847.732 380.131 847.732 388.416V517.121C847.732 525.406 841.018 532.121 832.733 532.121H704.027C695.743 532.121 689.027 525.406 689.027 517.121V388.416ZM859.233 388.416C859.233 380.131 865.949 373.416 874.233 373.416H1002.94C1011.22 373.416 1017.94 380.131 1017.94 388.416V517.121C1017.94 525.406 1011.22 532.121 1002.94 532.121H874.233C865.949 532.121 859.233 525.406 859.233 517.121V388.416ZM1004.19 543.621C995.904 543.621 989.188 550.336 989.188 558.621V785.08C989.188 793.365 995.904 800.08 1004.19 800.08H1230.65C1238.93 800.08 1245.65 793.365 1245.65 785.08V558.621C1245.65 550.336 1238.93 543.621 1230.65 543.621H1004.19ZM457.919 197.459C449.635 197.459 442.919 204.174 442.919 212.459V417.066C442.919 425.352 449.635 432.066 457.919 432.066H662.527C670.812 432.066 677.527 425.352 677.527 417.066V212.459C677.527 204.174 670.812 197.459 662.527 197.459H457.919ZM457.919 644.824C449.635 644.824 442.919 651.539 442.919 659.824V824.182C442.919 832.465 449.635 839.182 457.919 839.182H622.275C630.561 839.182 637.275 832.465 637.275 824.182V659.824C637.275 651.539 630.561 644.824 622.275 644.824H457.919ZM442.919 457.418C442.919 449.133 449.635 442.418 457.919 442.418H662.527C670.812 442.418 677.527 449.133 677.527 457.418V517.121C677.527 525.406 670.812 532.121 662.527 532.121H457.919C449.635 532.121 442.919 525.406 442.919 517.121V457.418ZM301.514 289.463C293.229 289.463 286.514 296.178 286.514 304.463V418.219C286.514 426.502 293.229 433.219 301.514 433.219H415.269C423.553 433.219 430.269 426.502 430.269 418.219V304.463C430.269 296.178 423.553 289.463 415.269 289.463H301.514ZM348.615 212.459C348.615 204.174 355.331 197.459 363.615 197.459H415.269C423.553 197.459 430.269 204.174 430.269 212.459V264.111C430.269 272.396 423.553 279.111 415.269 279.111H363.615C355.331 279.111 348.615 272.396 348.615 264.111V212.459ZM196.859 497.619C188.575 497.619 181.859 504.334 181.859 512.619V571.172C181.859 579.457 188.575 586.172 196.859 586.172H255.412C263.697 586.172 270.412 579.457 270.412 571.172V512.619C270.412 504.334 263.697 497.619 255.412 497.619H196.859ZM143 1C134.716 1 128 7.71484 128 16V264C128 272.285 134.716 279 143 279H321C329.284 279 336 272.285 336 264V16C336 7.71484 329.284 1 321 1H143ZM457.919 542.471C449.635 542.471 442.919 549.186 442.919 557.471V619.475C442.919 627.758 449.635 634.475 457.919 634.475H519.922C528.206 634.475 534.922 627.758 534.922 619.475V557.471C534.922 549.186 528.206 542.471 519.922 542.471H457.919ZM547.572 557.471C547.572 549.186 554.288 542.471 562.572 542.471H624.575C632.859 542.471 639.575 549.186 639.575 557.471V619.475C639.575 627.758 632.859 634.475 624.575 634.475H562.572C554.288 634.475 547.572 627.758 547.572 619.475V557.471ZM457.919 849.531C449.635 849.531 442.919 856.246 442.919 864.531V901.234C442.919 909.518 449.635 916.234 457.919 916.234H622.275C630.561 916.234 637.275 909.518 637.275 901.234V864.531C637.275 856.246 630.561 849.531 622.275 849.531H457.919ZM301.514 442.418C293.229 442.418 286.514 449.133 286.514 457.418V571.174C286.514 579.457 293.229 586.174 301.514 586.174H415.269C423.553 586.174 430.269 579.457 430.269 571.174V457.418C430.269 449.133 423.553 442.418 415.269 442.418H301.514ZM689.027 141.156C689.027 132.871 695.743 126.156 704.027 126.156H908.636C916.92 126.156 923.636 132.871 923.636 141.156V345.764C923.636 354.049 916.92 360.764 908.636 360.764H704.027C695.743 360.764 689.027 354.049 689.027 345.764V141.156ZM951.286 279.111C943.002 279.111 936.286 285.826 936.286 294.111V345.764C936.286 354.049 943.002 360.764 951.286 360.764H1002.94C1011.22 360.764 1017.94 354.049 1017.94 345.764V294.111C1017.94 285.826 1011.22 279.111 1002.94 279.111H951.286ZM891 827C891 818.715 897.716 812 906 812H964C972.284 812 979 818.715 979 827V901C979 909.285 972.284 916 964 916H906C897.716 916 891 909.285 891 901V827ZM850 1C841.716 1 835 7.71484 835 16V102C835 110.285 841.716 117 850 117H909C917.284 117 924 110.285 924 102V16C924 7.71484 917.284 1 909 1H850ZM936 16C936 7.71484 942.716 1 951 1H1141C1149.28 1 1156 7.71484 1156 16V254C1156 262.285 1149.28 269 1141 269H951C942.716 269 936 262.285 936 254V16ZM558 1C549.716 1 543 7.71484 543 16V170C543 178.285 549.716 185 558 185H664C672.284 185 679 178.285 679 170V16C679 7.71484 672.284 1 664 1H558ZM689 16C689 7.71484 695.716 1 704 1H810C818.284 1 825 7.71484 825 16V101C825 109.285 818.284 116 810 116H704C695.716 116 689 109.285 689 101V16ZM652.227 557.471C652.227 549.186 658.942 542.471 667.227 542.471H795.932C804.217 542.471 810.932 549.186 810.932 557.471V686.176C810.932 694.461 804.217 701.176 795.933 701.176H667.227C658.942 701.176 652.227 694.461 652.227 686.176V557.471ZM835.132 543.621C826.848 543.621 820.132 550.336 820.132 558.621V687.326C820.132 695.611 826.848 702.326 835.132 702.326H963.838C972.122 702.326 978.838 695.611 978.838 687.326V558.621C978.838 550.336 972.122 543.621 963.838 543.621H835.132ZM891.435 727.678C891.435 719.393 898.15 712.678 906.435 712.678H963.838C972.122 712.678 978.838 719.393 978.838 727.678V785.08C978.838 793.365 972.122 800.08 963.838 800.08H906.435C898.15 800.08 891.435 793.365 891.435 785.08V727.678ZM666 713C657.716 713 651 719.715 651 728V901C651 909.285 657.716 916 666 916H866C874.284 916 881 909.285 881 901V728C881 719.715 874.284 713 866 713H666ZM76.0557 304.463C76.0557 296.178 82.7715 289.463 91.0557 289.463H258.862C267.146 289.463 273.862 296.178 273.862 304.463V472.27C273.862 480.555 267.146 487.27 258.862 487.27H91.0557C82.7715 487.27 76.0557 480.555 76.0557 472.27V304.463ZM240.512 614.973C240.512 606.688 247.228 599.973 255.512 599.973H415.269C423.553 599.973 430.269 606.688 430.269 614.973V774.729C430.269 783.014 423.553 789.729 415.269 789.729H255.512C247.228 789.729 240.512 783.014 240.512 774.729V614.973ZM255.512 803.531C247.228 803.531 240.512 810.246 240.512 818.531V901.234C240.512 909.52 247.228 916.234 255.512 916.234H415.269C423.553 916.234 430.269 909.52 430.269 901.234V818.531C430.269 810.246 423.553 803.531 415.269 803.531H255.512Z" fill="#5A75BF" fill-opacity="0.14"/>
</svg>
