<svg width="1024" height="798" viewBox="0 0 1024 798" fill="none" xmlns="http://www.w3.org/2000/svg">
<rect x="545" y="326" width="138" height="138" rx="15" fill="#5A75BF" fill-opacity="0.14"/>
<rect x="693" y="326" width="138" height="138" rx="15" fill="#5A75BF" fill-opacity="0.14"/>
<rect x="960" y="97" width="138" height="138" rx="15" fill="#5A75BF" fill-opacity="0.14"/>
<rect x="960" y="-50" width="138" height="138" rx="15" fill="#5A75BF" fill-opacity="0.14"/>
<rect x="806" y="474" width="223" height="223" rx="15" fill="#5A75BF" fill-opacity="0.14"/>
<rect x="806" y="707" width="223" height="77" rx="15" fill="#5A75BF" fill-opacity="0.14"/>
<rect x="841" y="244" width="220" height="220" rx="15" fill="#5A75BF" fill-opacity="0.14"/>
<rect x="331" y="173" width="204" height="204" rx="15" fill="#5A75BF" fill-opacity="0.14"/>
<rect x="-59" y="523" width="204" height="204" rx="15" fill="#5A75BF" fill-opacity="0.14"/>
<rect x="331" y="562" width="169" height="169" rx="15" fill="#5A75BF" fill-opacity="0.14"/>
<rect x="331" y="386" width="204" height="78" rx="15" fill="#5A75BF" fill-opacity="0.14"/>
<rect x="195" y="253" width="125" height="125" rx="15" fill="#5A75BF" fill-opacity="0.14"/>
<rect x="249" y="173" width="71" height="71" rx="15" fill="#5A75BF" fill-opacity="0.14"/>
<rect x="104" y="434" width="77" height="77" rx="15" fill="#5A75BF" fill-opacity="0.14"/>
<rect x="-47" y="434" width="145" height="77" rx="15" fill="#5A75BF" fill-opacity="0.14"/>
<rect x="57" y="63" width="181" height="181" rx="15" fill="#5A75BF" fill-opacity="0.14"/>
<rect x="-135" y="63" width="181" height="181" rx="15" fill="#5A75BF" fill-opacity="0.14"/>
<rect x="331" y="473" width="80" height="80" rx="15" fill="#5A75BF" fill-opacity="0.14"/>
<rect x="422" y="473" width="80" height="80" rx="15" fill="#5A75BF" fill-opacity="0.14"/>
<rect x="331" y="740" width="169" height="58" rx="15" fill="#5A75BF" fill-opacity="0.14"/>
<rect x="195" y="386" width="125" height="125" rx="15" fill="#5A75BF" fill-opacity="0.14"/>
<rect x="545" y="111" width="204" height="204" rx="15" fill="#5A75BF" fill-opacity="0.14"/>
<rect x="760" y="244" width="71" height="71" rx="15" fill="#5A75BF" fill-opacity="0.14"/>
<rect x="721" y="707" width="76" height="71" rx="15" fill="#5A75BF" fill-opacity="0.14"/>
<rect x="672" y="26" width="77" height="77" rx="15" fill="#5A75BF" fill-opacity="0.14"/>
<rect x="760" y="44" width="191" height="191" rx="15" fill="#5A75BF" fill-opacity="0.14"/>
<rect x="418" y="44" width="118" height="118" rx="15" fill="#5A75BF" fill-opacity="0.14"/>
<rect x="545" y="-16" width="118" height="118" rx="15" fill="#5A75BF" fill-opacity="0.14"/>
<rect x="249" y="2" width="160" height="160" rx="15" fill="#5A75BF" fill-opacity="0.14"/>
<rect x="513" y="473" width="138" height="138" rx="15" fill="#5A75BF" fill-opacity="0.14"/>
<rect x="659" y="474" width="138" height="138" rx="15" fill="#5A75BF" fill-opacity="0.14"/>
<rect x="721" y="621" width="76" height="76" rx="15" fill="#5A75BF" fill-opacity="0.14"/>
<rect x="512" y="621" width="200" height="170" rx="15" fill="#5A75BF" fill-opacity="0.14"/>
<rect x="12" y="253" width="172" height="172" rx="15" fill="#5A75BF" fill-opacity="0.14"/>
<rect x="155" y="523" width="165" height="165" rx="15" fill="#5A75BF" fill-opacity="0.14"/>
<rect x="155" y="700" width="165" height="98" rx="15" fill="#5A75BF" fill-opacity="0.14"/>
</svg>
