<svg id="Réteg_1" data-name="Réteg 1" xmlns="http://www.w3.org/2000/svg" viewBox="0 0 800 800"><defs><style>.cls-1{fill:#fff;}</style></defs><path class="cls-1" d="M338.08,654.12,333,672.54c-7.16,29.65-23.53,57.28-37.83,79.79,34.79,9.2,68.53,14.34,104.34,14.34,101.26,0,192.27-39.9,259.79-106.37a368,368,0,0,0,0-519.59C591.75,74.24,500.74,33.33,399.48,33.33S207.2,74.24,140.73,140.71C73.21,207.18,33.35,299.25,33.35,400.51c0,75.7,21.47,145.24,61.36,202.52C133.6,660.3,188.81,707.36,252.23,735a324.56,324.56,0,0,1,7.17-81.82c1-8.18,4.09-20.45,8.18-36.82,3.08-14.33,8.19-34.78,14.34-61.36,6.15-25.56,14.33-59.34,23.53-102.27a62.1,62.1,0,0,1-6.15-19.44c-4.09-13.29-6.16-25.57-5.11-38.89,0-53.18,30.7-95.1,71.61-95.1,33.74,0,49.09,25.56,49.09,55.24,0,16.37-5.1,35.81-12.27,59.34-8.18,24.54-15.35,46-20.46,70.56-5.1,19.44,0,36.82,11.26,50.11A64.82,64.82,0,0,0,440.48,555c34.79,0,63.43-21.47,83.89-57.27s32.72-84.9,32.72-138.08c0-39.9-13.28-73.64-39.89-99.2s-64.44-39.9-113.53-39.9c-55.25,0-100.25,19.44-131.93,52.17s-49.09,76.72-49.09,123.75c0,29.65,9.19,52.16,25.56,70.56,5.1,8.18,7.17,11.26,5.1,20.45a86.94,86.94,0,0,0-4.09,14.34c-3.07,13.28-4.09,30.7-22.51,24.54-51.16-20.45-74.66-77.73-74.66-141.15,0-52.17,21.47-108.43,65.46-152.38,44-45,110.46-75.7,196.37-75.7,70.56,0,128.88,24.54,169.79,64.44a200.72,200.72,0,0,1,62.38,145.24c0,72.63-19.44,135-54.2,180S507,618.38,448.67,618.38c-39.9,0-76.72-20.46-90-46-6.15,22.52-10.24,38.88-13.28,51.15-3.08,13.29-5.11,24.55-7.17,30.7Z"/></svg>